name D:\school\WTK\thesis\model\3dpredictsim\Results\Batchsim_tmt_linear\Pog_s1_tmt_bCst_d00_k250_ig24_act.mot
datacolumns 128
datarows 4
range 1.22726802 1.26408606
endheader
time	pelvis_tilt	pelvis_list	pelvis_rotation	pelvis_tx	pelvis_ty	pelvis_tz	hip_flexion_l	hip_adduction_l	hip_rotation_l	hip_flexion_r	hip_adduction_r	hip_rotation_r	knee_angle_l	knee_angle_r	ankle_angle_l	ankle_angle_r	subtalar_angle_l	subtalar_angle_r	tmt_angle_l	tmt_angle_r	mtp_angle_l	mtp_angle_r	lumbar_extension	lumbar_bending	lumbar_rotation	arm_flex_l	arm_add_l	arm_rot_l	arm_flex_r	arm_add_r	arm_rot_r	elbow_flex_l	elbow_flex_r	pro_sup_l	pro_sup_r	glut_med1_l/activation	glut_med2_l/activation	glut_med3_l/activation	glut_min1_l/activation	glut_min2_l/activation	glut_min3_l/activation	semimem_l/activation	semiten_l/activation	bifemlh_l/activation	bifemsh_l/activation	sar_l/activation	add_long_l/activation	add_brev_l/activation	add_mag1_l/activation	add_mag2_l/activation	add_mag3_l/activation	tfl_l/activation	pect_l/activation	grac_l/activation	glut_max1_l/activation	glut_max2_l/activation	glut_max3_l/activation	iliacus_l/activation	psoas_l/activation	quad_fem_l/activation	gem_l/activation	peri_l/activation	rect_fem_l/activation	vas_med_l/activation	vas_int_l/activation	vas_lat_l/activation	med_gas_l/activation	lat_gas_l/activation	soleus_l/activation	tib_post_l/activation	flex_dig_l/activation	flex_hal_l/activation	tib_ant_l/activation	per_brev_l/activation	per_long_l/activation	per_tert_l/activation	ext_dig_l/activation	ext_hal_l/activation	ercspn_l/activation	intobl_l/activation	extobl_l/activation	glut_med1_r/activation	glut_med2_r/activation	glut_med3_r/activation	glut_min1_r/activation	glut_min2_r/activation	glut_min3_r/activation	semimem_r/activation	semiten_r/activation	bifemlh_r/activation	bifemsh_r/activation	sar_r/activation	add_long_r/activation	add_brev_r/activation	add_mag1_r/activation	add_mag2_r/activation	add_mag3_r/activation	tfl_r/activation	pect_r/activation	grac_r/activation	glut_max1_r/activation	glut_max2_r/activation	glut_max3_r/activation	iliacus_r/activation	psoas_r/activation	quad_fem_r/activation	gem_r/activation	peri_r/activation	rect_fem_r/activation	vas_med_r/activation	vas_int_r/activation	vas_lat_r/activation	med_gas_r/activation	lat_gas_r/activation	soleus_r/activation	tib_post_r/activation	flex_dig_r/activation	flex_hal_r/activation	tib_ant_r/activation	per_brev_r/activation	per_long_r/activation	per_tert_r/activation	ext_dig_r/activation	ext_hal_r/activation	ercspn_r/activation	intobl_r/activation	extobl_r/activation	
          1.22726802	         -2.92731757	         -0.72079690	          8.42289868	          1.53408502	          0.86646789	         -0.00290020	        -14.05041726	         -1.69779027	          7.73409847	         30.38965791	         -0.06863249	         -1.43072245	        -18.61578447	        -12.87104206	        -18.11360533	          9.52821517	         16.47554610	          4.11411170	          3.65250910	          0.11619552	         32.37872911	         -0.06649634	          0.16749418	         -1.67111104	         -2.51112371	          3.85580987	        -13.48546418	         17.57188400	        -11.27442685	        -13.55873409	         13.65470276	         41.61949274	         16.14049843	         86.51662706	         86.51662706	          0.10299040	          0.06834617	          0.08738535	          0.11845450	          0.10316162	          0.08738694	          0.05000063	          0.05000006	          0.05000007	          0.05000005	          0.07254823	          0.15988521	          0.05000049	          0.05000015	          0.05000079	          0.05000044	          0.18168492	          0.05964433	          0.05000030	          0.05000401	          0.05000344	          0.05000435	          0.39283722	          0.59422689	          0.11165448	          0.05000170	          0.09393894	          0.38860841	          0.10005690	          0.11064544	          0.09755458	          0.11835947	          0.19332662	          0.05000001	          0.13372134	          0.16163080	          0.16936840	          0.12076239	          0.49908397	          0.38748027	          0.47749908	          0.45534383	          0.23435812	          0.05000000	          0.05000001	          0.08382920	          0.06022723	          0.06022724	          0.05154411	          0.06022721	          0.06022722	          0.06022722	          0.21355480	          0.11896290	          0.21995744	          0.09197966	          0.05000007	          0.05000038	          0.15309727	          0.16335732	          0.18359199	          0.13352764	          0.06022722	          0.05000070	          0.16940900	          0.07254604	          0.06285993	          0.14224896	          0.05000004	          0.05000002	          0.15151658	          0.05000030	          0.05439420	          0.05000000	          0.05000001	          0.05000002	          0.05000001	          0.06022732	          0.06022727	          0.06022723	          0.06639033	          0.08738479	          0.07561814	          0.42753084	          0.24999582	          0.18292599	          0.12641398	          0.46231556	          0.22752803	          0.05000001	          0.12433946	          0.10578321	
          1.23954070	         -2.93012282	         -0.61004134	          8.60869092	          1.55368974	          0.86498862	         -0.00265170	        -14.13083898	         -1.85994025	          7.33514707	         29.77867363	          0.24954038	         -1.21474922	        -19.85511803	        -13.38607333	        -21.30310125	          8.88164816	         16.78343762	          3.69962310	          3.19795546	          0.05655665	         33.85074992	         -0.05833346	          0.40963555	         -1.57869386	         -2.60500004	          3.50110261	        -13.54329958	         17.88108486	        -12.70858718	        -13.53737463	         13.67002965	         42.58250931	         16.26224823	         86.51662706	         86.51662706	          0.08550153	          0.05674032	          0.07254642	          0.09833967	          0.08564369	          0.07254776	          0.05000238	          0.06191651	          0.07254621	          0.05000048	          0.06022879	          0.23811974	          0.22713704	          0.30478354	          0.07368461	          0.10876669	          0.15083288	          0.05000166	          0.07254584	          0.05000062	          0.05000049	          0.05000097	          0.32612923	          0.49332077	          0.16969358	          0.07254734	          0.07798724	          0.32261852	          0.08306628	          0.12678770	          0.08098916	          0.09826076	          0.16049768	          0.05000000	          0.11101402	          0.13418416	          0.14060783	          0.28203939	          0.48844784	          0.36961074	          0.71262382	          0.60727553	          0.26817955	          0.05000002	          0.08738536	          0.08742794	          0.05000000	          0.05000002	          0.06134031	          0.05000001	          0.05000002	          0.05000003	          0.17729090	          0.09876173	          0.18260630	          0.07636053	          0.05159675	          0.10525939	          0.23976785	          0.36750402	          0.22536107	          0.11135014	          0.05000004	          0.06219845	          0.14064159	          0.06022715	          0.06022740	          0.18236107	          0.05000008	          0.07254637	          0.53333331	          0.20961379	          0.18809318	          0.07254645	          0.20797436	          0.21941589	          0.18488165	          0.05000007	          0.05000003	          0.05000000	          0.06008283	          0.07254610	          0.06277741	          0.57510100	          0.20754385	          0.15186321	          0.43856725	          0.53215032	          0.35466444	          0.05000000	          0.10322528	          0.08782008	
          1.25181338	         -2.92724181	         -0.51543831	          8.75909112	          1.57345421	          0.86301142	         -0.00243949	        -14.02652436	         -2.00288050	          6.90630357	         28.99108023	          0.50152661	         -0.91125486	        -21.46373565	        -14.15740922	        -23.91896454	          8.28458155	         16.98624703	          3.25750467	          2.45025712	         -0.10617026	         34.11113658	         -0.15421524	          0.65298427	         -1.45612567	         -2.68038886	          3.08595580	        -13.61343092	         18.11421704	        -14.11867086	        -13.53797219	         13.78536032	         43.55794001	         16.34985745	         86.51662706	         86.51662706	          0.10525974	          0.06022730	          0.06022728	          0.08164055	          0.07110052	          0.06022843	          0.05018004	          0.06022722	          0.06022733	          0.05000003	          0.05000133	          0.19768446	          0.20838703	          0.25302803	          0.06117255	          0.09029706	          0.12521996	          0.05000117	          0.06022759	          0.06022742	          0.06022740	          0.06022739	          0.27074898	          0.47303365	          0.14087780	          0.06022808	          0.06474418	          0.26783443	          0.07000241	          0.10525798	          0.06723647	          0.08157502	          0.13324345	          0.06022726	          0.09216264	          0.11139825	          0.11673111	          0.24431647	          0.45348623	          0.32777563	          0.84194267	          0.78400117	          0.53543171	          0.06733788	          0.07254638	          0.07258174	          0.28406743	          0.25765452	          0.29246015	          0.05000468	          0.05000024	          0.30516644	          0.15760333	          0.13795074	          0.16048912	          0.08738486	          0.05000013	          0.08738525	          0.19905280	          0.30509791	          0.24339909	          0.16918959	          0.05000005	          0.07254629	          0.15284808	          0.05000002	          0.05000015	          0.19554142	          0.05505432	          0.06022723	          0.44276757	          0.17401913	          0.26852665	          0.06022728	          0.17265808	          0.18215671	          0.15348676	          0.06022710	          0.06022719	          0.06022722	          0.05000003	          0.06022720	          0.06022723	          0.54110545	          0.33709307	          0.17978730	          0.45975234	          0.58876125	          0.50476213	          0.05000000	          0.08583863	          0.07290728	
          1.26408606	         -2.92082137	         -0.43894536	          8.87333876	          1.59310820	          0.86070948	         -0.00222268	        -13.69643808	         -2.14589931	          6.46187543	         28.10821461	          0.70401963	         -0.59087974	        -23.49001485	        -14.90253926	        -25.97557158	          7.75251348	         17.05874815	          2.78817476	          1.78565082	         -0.01362821	         32.60340052	         -0.17143740	          0.87611601	         -1.30687897	         -2.73906011	          2.65717936	        -13.68936631	         18.28005787	        -15.43824629	        -13.55050638	         14.02635284	         44.50402364	         16.35607334	         86.51662706	         86.51662706	          0.08738554	          0.05000008	          0.05000004	          0.16363192	          0.07254647	          0.05000103	          0.05000030	          0.05000004	          0.05000010	          0.05000008	          0.06022747	          0.16411721	          0.17300069	          0.21006117	          0.05078484	          0.07496368	          0.10395636	          0.06022715	          0.05000034	          0.05000029	          0.05000019	          0.05000015	          0.22477290	          0.44492985	          0.11695524	          0.05000073	          0.05374994	          0.28959582	          0.05811530	          0.08738525	          0.08738534	          0.06772271	          0.11061728	          0.05000002	          0.07651243	          0.09248163	          0.09690891	          0.24539112	          0.41013557	          0.29242182	          0.81459580	          0.88120039	          0.44450964	          0.09946697	          0.06022723	          0.06025658	          0.37891533	          0.42639215	          0.46849016	          0.26792241	          0.31457908	          0.34708607	          0.13084059	          0.11452524	          0.13323634	          0.07254644	          0.05000015	          0.07254630	          0.16525150	          0.25328902	          0.21384711	          0.18640396	          0.05000005	          0.06022721	          0.12689287	          0.28387342	          0.21617851	          0.21849570	          0.05000001	          0.05000002	          0.36758087	          0.14446883	          0.22292816	          0.05000004	          0.14333892	          0.19751895	          0.12742316	          0.05000000	          0.05000000	          0.05000000	          0.05000000	          0.05000003	          0.05000002	          0.69086280	          0.30848722	          0.16048353	          0.70286326	          0.63066802	          0.41904828	          0.07354063	          0.09433529	          0.06052684	
